<svg width="163" height="91" viewBox="0 0 163 91" fill="none" xmlns="http://www.w3.org/2000/svg">
<g clip-path="url(#clip0_1731_4162)">
<path d="M162.987 32.2626C163.004 32.1365 163.004 32.009 162.987 31.8829C163.003 31.7802 163.003 31.6754 162.987 31.5725L161.78 22.7048C161.606 21.6439 161.14 20.6523 160.435 19.8409L160.227 19.5994L159.848 19.2198L138.944 1.20852L139.53 1.79515C139.051 1.22098 138.448 0.761729 137.768 0.451214C137.087 0.140697 136.346 -0.0131913 135.598 0.000901275H129.251C128.219 -0.0195535 127.21 0.308683 126.387 0.932535C125.524 0.312441 124.484 -0.0141167 123.421 0.000901275H117.074C116.241 -0.0126083 115.42 0.194046 114.693 0.600001C113.966 1.00596 113.359 1.5968 112.934 2.31268C112.279 3.33518 112.032 4.56713 112.244 5.76314L113.038 11.3528C112.512 11.0548 111.917 10.9001 111.313 10.9043H80.5775C79.4747 10.9112 78.3973 11.2345 77.4728 11.8359C76.5788 12.3956 75.8611 13.1971 75.4031 14.1477L73.0229 12.1119C72.0861 11.2449 70.8495 10.775 69.5734 10.8008H21.3487C20.242 10.821 19.1599 11.1302 18.2097 11.6979C16.9096 12.459 15.9568 13.6966 15.5534 15.1483L0.237437 66.3874C-0.0487375 67.2318 -0.0768892 68.1423 0.156587 69.0027C0.390063 69.8629 0.874595 70.6344 1.54828 71.2181C1.72382 71.3669 1.90814 71.5052 2.10022 71.632C2.10022 71.632 1.78971 71.425 1.61723 71.2526L22.5216 89.2984C23.4059 90.1128 24.5621 90.5679 25.764 90.5749H74.3683C75.4783 90.5461 76.5611 90.2248 77.5074 89.6433C78.0426 89.3508 78.5214 88.9652 78.9217 88.5046L79.0942 88.2631L79.3701 87.9182L79.5771 87.5386L81.8539 89.5054C82.7254 90.2874 83.8565 90.7176 85.0274 90.7131H133.735C134.844 90.6761 135.925 90.3554 136.874 89.7814C137.397 89.471 137.873 89.0875 138.289 88.6428L138.461 88.4012L138.737 88.0563C138.883 87.8379 139.011 87.607 139.116 87.366C139.229 87.1569 139.321 86.9373 139.392 86.7106L153.363 39.9226V39.5085C153.38 39.3479 153.38 39.186 153.363 39.0254V38.715C153.38 38.612 153.38 38.5072 153.363 38.4043C153.378 38.1861 153.378 37.967 153.363 37.7486H157.847C158.237 37.7845 158.63 37.7845 159.02 37.7486H159.331C159.583 37.6734 159.826 37.569 160.055 37.4382H160.4L161.021 36.9551L161.297 36.7481L161.78 36.1269V35.9201L162.125 35.3334C162.106 35.2193 162.106 35.1026 162.125 34.9885C162.106 34.9325 162.106 34.8719 162.125 34.8159C162.198 34.6136 162.256 34.4059 162.297 34.1947C162.281 34.1267 162.281 34.0557 162.297 33.9877C162.281 33.885 162.281 33.78 162.297 33.6772C162.297 33.6772 162.987 32.3315 162.987 32.2626Z" fill="#D51E1E"/>
<path d="M70.9874 14.7345C71.1706 14.9001 71.2985 15.1179 71.3539 15.3586C71.4096 15.5992 71.3899 15.851 71.298 16.0802L56.0165 67.2847C55.8241 67.8438 55.4304 68.3111 54.9127 68.596C54.4914 68.8779 54.0037 69.0443 53.4982 69.079H4.92865C4.51386 69.0591 4.12089 68.8872 3.82478 68.596C3.64862 68.4329 3.52499 68.2211 3.46968 67.9878C3.41438 67.7542 3.42995 67.5095 3.51433 67.2847L18.8303 16.0802C19.0068 15.5141 19.3881 15.0342 19.8997 14.7345C20.3279 14.4728 20.8132 14.3189 21.314 14.2859H69.8835C70.2951 14.2899 70.6897 14.4503 70.9874 14.7345ZM45.6332 56.9679L54.7746 26.397H29.179L20.0721 56.9679H45.6332ZM117.349 15.252C117.515 15.4447 117.722 15.5974 117.955 15.699C118.188 15.8005 118.441 15.8483 118.695 15.8386H125.007C125.248 15.841 125.485 15.782 125.696 15.6673C125.907 15.5526 126.086 15.3859 126.215 15.183C126.327 15.0246 126.406 14.8451 126.447 14.6555C126.489 14.4658 126.492 14.2697 126.456 14.0789L125.214 4.96973C125.096 4.54814 124.884 4.15885 124.594 3.83108C124.428 3.63845 124.221 3.48569 123.988 3.38414C123.755 3.28258 123.502 3.23487 123.248 3.24451H116.936C116.695 3.24217 116.458 3.30113 116.247 3.41584C116.036 3.53055 115.857 3.69721 115.728 3.90011C115.487 4.38316 115.383 4.69369 115.487 4.96973L116.763 14.0789C116.828 14.5225 117.034 14.9335 117.349 15.252ZM137.391 4.90072C137.273 4.47911 137.061 4.08982 136.77 3.76207C136.612 3.57014 136.411 3.41743 136.183 3.31569C135.956 3.21398 135.708 3.16599 135.46 3.1755H129.112C128.876 3.16876 128.642 3.22614 128.436 3.34155C128.229 3.45696 128.058 3.62614 127.94 3.83108C127.71 4.13719 127.611 4.5217 127.664 4.90072L128.94 14.0099C129.02 14.4487 129.223 14.8557 129.526 15.183C129.695 15.3719 129.903 15.5221 130.135 15.6233C130.367 15.7246 130.618 15.7745 130.872 15.7696H137.219C137.455 15.7727 137.687 15.7138 137.893 15.5987C138.099 15.4837 138.271 15.3166 138.392 15.114C138.512 14.9597 138.596 14.7803 138.637 14.5893C138.679 14.3982 138.678 14.2003 138.633 14.0099L137.391 4.90072ZM111.796 18.7025L111.175 14.2169H80.5772C80.0968 14.2434 79.6321 14.3983 79.2318 14.6655C78.9778 14.804 78.7566 14.9961 78.5839 15.2285C78.4114 15.4608 78.2912 15.7278 78.2316 16.0111L75.6789 24.5682C75.577 24.782 75.5421 25.022 75.579 25.256C75.6162 25.49 75.723 25.7073 75.8858 25.8794C76.1767 26.1529 76.5564 26.3124 76.9552 26.328H114.141L105 56.899H67.9174C67.4392 56.9099 66.9735 57.0532 66.5721 57.3129C66.0843 57.6229 65.7279 58.1021 65.5717 58.6586L62.9846 67.2158C62.9001 67.4353 62.8779 67.6739 62.9205 67.9052C62.9633 68.1368 63.0688 68.3517 63.2259 68.5268C63.5077 68.8187 63.8903 68.9915 64.2954 69.0099H113.003C113.507 68.9665 113.992 68.8008 114.417 68.5268C114.927 68.2406 115.309 67.7723 115.487 67.2158L129.492 20.4277H113.727C113.477 20.4326 113.229 20.3862 112.997 20.2912C112.766 20.1963 112.557 20.0548 112.382 19.8756C112.097 19.5627 111.895 19.183 111.796 18.7715V18.7025Z" fill="white"/>
</g>
<defs>
<clipPath id="clip0_1731_4162">
<rect width="163" height="90.713" fill="white"/>
</clipPath>
</defs>
</svg>
